<svg width="65" height="34" viewBox="0 0 65 34" fill="none" xmlns="http://www.w3.org/2000/svg">
<g clip-path="url(#clip0_7033_435812)">
<path d="M4.84638 16.0312C5.00788 17.4836 5.57275 18.6136 6.54099 19.4211C7.5274 20.2345 8.77435 20.6645 10.0525 20.6319C11.1176 20.6686 12.1722 20.41 13.0996 19.8848C13.9207 19.3867 14.6509 18.7521 15.2586 18.0084L18.7293 20.6319C17.7325 21.927 16.4288 22.9533 14.9358 23.618C13.5446 24.2083 12.0481 24.5104 10.5368 24.5061C9.13185 24.5145 7.73702 24.2684 6.41986 23.7795C5.17666 23.3248 4.03758 22.6248 3.07033 21.7211C2.11489 20.8143 1.35298 19.7234 0.830532 18.5141C0.26512 17.1947 -0.0166761 15.7712 0.00341432 14.3359C-0.0165141 12.9009 0.265279 11.4778 0.830532 10.1587C1.3529 8.949 2.1148 7.85754 3.07033 6.95017C4.03741 6.04611 5.17653 5.34591 6.41986 4.89126C7.73702 4.4024 9.13185 4.15625 10.5368 4.16474C11.8022 4.1496 13.0577 4.3898 14.2282 4.87096C15.3245 5.32714 16.3042 6.02393 17.0949 6.9098C17.9292 7.86978 18.5605 8.98868 18.951 10.1991C19.4177 11.6522 19.6428 13.1721 19.6173 14.6981V16.03L4.84638 16.0312ZM14.7743 12.3985C14.7473 10.9455 14.3033 9.81551 13.4424 9.00862C12.5815 8.20173 11.3843 7.79829 9.85061 7.79829C8.39756 7.79829 7.24737 8.21534 6.40002 9.04946C5.55268 9.88357 5.0348 10.9999 4.84638 12.3985H14.7743Z" fill="white"/>
<path d="M43.098 4.65026H47.6992V7.55567H47.7799C48.414 6.4044 49.4056 5.49075 50.6048 4.95273C51.8129 4.42287 53.1195 4.15467 54.4386 4.16576C55.8109 4.14419 57.1723 4.41235 58.4339 4.95273C59.5828 5.45277 60.614 6.18829 61.4609 7.11177C62.3067 8.04738 62.9523 9.14601 63.3581 10.3402C63.7964 11.6264 64.0147 12.9772 64.0041 14.336C64.0152 15.698 63.7828 17.051 63.318 18.3313C62.89 19.5195 62.2394 20.6152 61.4009 21.5597C60.574 22.479 59.5635 23.2147 58.4346 23.7194C57.2414 24.2514 55.9475 24.5198 54.6412 24.5062C53.8319 24.5155 53.0248 24.4205 52.2399 24.2235C51.587 24.0589 50.9568 23.8149 50.3632 23.497C49.8714 23.2338 49.411 22.9157 48.9909 22.5488C48.6496 22.2505 48.3386 21.9192 48.0625 21.5597H47.9416V33.2233H43.098V4.65026ZM59.1604 14.336C59.1621 13.5927 59.0324 12.855 58.7772 12.1568C58.528 11.4686 58.1436 10.8372 57.6467 10.2998C57.1112 9.72856 56.4643 9.27322 55.7458 8.96193C55.0274 8.65065 54.2527 8.49005 53.4697 8.49005C52.6867 8.49005 51.9121 8.65065 51.1936 8.96193C50.4752 9.27322 49.8282 9.72856 49.2927 10.2998C48.7954 10.8369 48.4109 11.4684 48.1622 12.1568C47.6512 13.5647 47.6512 15.1073 48.1622 16.5151C48.4106 17.2035 48.7951 17.835 49.2927 18.3716C49.8281 18.943 50.475 19.3985 51.1935 19.7099C51.912 20.0213 52.6867 20.1819 53.4697 20.1819C54.2527 20.1819 55.0275 20.0213 55.7459 19.7099C56.4644 19.3985 57.1113 18.943 57.6467 18.3716C58.144 17.8347 58.5284 17.2033 58.7772 16.5151C59.0325 15.817 59.1622 15.0792 59.1604 14.336Z" fill="white"/>
<path d="M33.2842 14.3344L40.6725 24.0208H34.7809L30.3329 18.1922L25.8956 24.0208H20.0038L38.3222 0H44.2142L33.2842 14.3344Z" fill="white"/>
<path d="M25.8986 4.6499H20.0061L25.9675 12.4758L28.9106 8.60784L25.8986 4.6499Z" fill="white"/>
<path d="M4.47931 27.6486C4.47931 27.6111 4.49419 27.5752 4.52067 27.5487C4.54715 27.5222 4.58306 27.5074 4.62051 27.5074H6.7431C7.16942 27.5045 7.57942 27.6711 7.88299 27.9704C8.18656 28.2698 8.35887 28.6774 8.36204 29.1037C8.35243 29.4356 8.2422 29.7567 8.04595 30.0245C7.84971 30.2923 7.57671 30.4942 7.26314 30.6033L8.28013 32.4892C8.29387 32.511 8.30136 32.5361 8.30177 32.5619C8.30219 32.5876 8.29552 32.613 8.2825 32.6352C8.26947 32.6574 8.25059 32.6756 8.22792 32.6879C8.20524 32.7001 8.17965 32.7058 8.15393 32.7045H7.37411C7.35002 32.7058 7.32606 32.7002 7.30502 32.6884C7.28397 32.6766 7.26673 32.659 7.25529 32.6378L6.26806 30.6702H5.44394V32.5635C5.44267 32.6005 5.42738 32.6357 5.40117 32.6619C5.37495 32.688 5.33977 32.7033 5.30274 32.7045H4.61982C4.60129 32.7045 4.58293 32.7009 4.5658 32.6938C4.54867 32.6867 4.53311 32.6764 4.51999 32.6633C4.50688 32.6502 4.49647 32.6346 4.48938 32.6175C4.48228 32.6004 4.47862 32.582 4.47862 32.5635L4.47931 27.6486ZM6.66189 29.8759C6.85895 29.8704 7.04605 29.7881 7.18332 29.6466C7.32058 29.5051 7.39716 29.3156 7.39672 29.1185C7.39198 28.9264 7.31258 28.7438 7.17538 28.6093C7.03818 28.4749 6.85398 28.3992 6.66189 28.3984H5.45132V29.875L6.66189 29.8759Z" fill="white"/>
<path d="M11.5009 27.6485C11.5009 27.6111 11.5158 27.5752 11.5423 27.5487C11.5688 27.5222 11.6047 27.5073 11.6421 27.5073H14.6645C14.683 27.5073 14.7014 27.511 14.7185 27.5181C14.7356 27.5252 14.7511 27.5356 14.7642 27.5487C14.7773 27.5618 14.7876 27.5774 14.7947 27.5945C14.8017 27.6117 14.8053 27.63 14.8053 27.6485V28.2572C14.8053 28.2757 14.8017 28.294 14.7947 28.3112C14.7876 28.3283 14.7773 28.3438 14.7642 28.357C14.7511 28.3701 14.7356 28.3805 14.7185 28.3876C14.7014 28.3947 14.683 28.3984 14.6645 28.3984H12.4663V29.6158H14.3C14.337 29.6172 14.3721 29.6325 14.3982 29.6587C14.4243 29.6849 14.4395 29.7201 14.4407 29.757V30.3733C14.4408 30.3918 14.4371 30.4101 14.4301 30.4272C14.423 30.4443 14.4127 30.4599 14.3996 30.4729C14.3865 30.486 14.371 30.4964 14.3539 30.5035C14.3368 30.5106 14.3185 30.5143 14.3 30.5143H12.4663V31.8136H14.6638C14.6823 31.8136 14.7007 31.8172 14.7178 31.8243C14.7349 31.8314 14.7504 31.8418 14.7635 31.8549C14.7766 31.868 14.7869 31.8835 14.794 31.9006C14.801 31.9178 14.8046 31.9361 14.8046 31.9546V32.5635C14.8046 32.582 14.801 32.6003 14.794 32.6174C14.7869 32.6345 14.7766 32.6501 14.7635 32.6632C14.7504 32.6763 14.7349 32.6867 14.7178 32.6938C14.7007 32.7008 14.6823 32.7045 14.6638 32.7044H11.6414C11.6229 32.7045 11.6046 32.7008 11.5874 32.6938C11.5703 32.6867 11.5547 32.6763 11.5416 32.6632C11.5285 32.6501 11.5181 32.6346 11.511 32.6175C11.5039 32.6004 11.5002 32.582 11.5002 32.5635L11.5009 27.6485Z" fill="white"/>
<path d="M16.8226 32.5114L19.1321 27.5148C19.1424 27.49 19.1599 27.4689 19.1824 27.4543C19.2049 27.4397 19.2313 27.4322 19.2581 27.4329H19.3324C19.3594 27.4311 19.3863 27.4382 19.409 27.4529C19.4318 27.4677 19.4491 27.4894 19.4586 27.5148L21.7452 32.5114C21.7565 32.5322 21.762 32.5556 21.761 32.5792C21.7601 32.6029 21.7527 32.6258 21.7398 32.6456C21.7268 32.6654 21.7088 32.6813 21.6875 32.6916C21.6662 32.7019 21.6426 32.7063 21.619 32.7043H20.973C20.9257 32.707 20.8789 32.6939 20.8398 32.667C20.8008 32.6401 20.7719 32.6011 20.7575 32.5559L20.3934 31.754H18.1742L17.8106 32.5559C17.7948 32.6001 17.7656 32.6382 17.727 32.6648C17.6884 32.6914 17.6424 32.7052 17.5955 32.7043H16.9495C16.9259 32.7064 16.9022 32.7021 16.8809 32.6918C16.8596 32.6815 16.8414 32.6656 16.8284 32.6458C16.8154 32.626 16.808 32.6031 16.807 32.5794C16.806 32.5557 16.8114 32.5322 16.8226 32.5114ZM20.0296 30.9298L19.2871 29.2964H19.2641L18.5366 30.9298H20.0296Z" fill="white"/>
<path d="M23.9056 27.6485C23.9056 27.63 23.9092 27.6117 23.9162 27.5945C23.9233 27.5774 23.9336 27.5618 23.9467 27.5487C23.9598 27.5356 23.9753 27.5252 23.9924 27.5181C24.0095 27.511 24.0278 27.5073 24.0464 27.5073H24.7297C24.7667 27.5086 24.8018 27.524 24.828 27.5502C24.8541 27.5764 24.8693 27.6115 24.8705 27.6485V31.8136H26.7637C26.7823 31.8136 26.8006 31.8172 26.8178 31.8243C26.8349 31.8314 26.8505 31.8418 26.8636 31.8549C26.8767 31.8679 26.8871 31.8835 26.8942 31.9006C26.9013 31.9177 26.9049 31.9361 26.9049 31.9546V32.5635C26.9049 32.582 26.9013 32.6004 26.8942 32.6175C26.8871 32.6346 26.8767 32.6501 26.8636 32.6632C26.8505 32.6763 26.8349 32.6867 26.8178 32.6938C26.8006 32.7008 26.7823 32.7045 26.7637 32.7044H24.0461C24.0276 32.7045 24.0093 32.7008 23.9922 32.6938C23.9751 32.6867 23.9595 32.6763 23.9465 32.6632C23.9334 32.6501 23.923 32.6345 23.916 32.6174C23.9089 32.6003 23.9053 32.582 23.9054 32.5635L23.9056 27.6485Z" fill="white"/>
<path d="M30.1336 28.3984H28.9978C28.9792 28.3984 28.9608 28.3947 28.9437 28.3877C28.9266 28.3806 28.911 28.3702 28.8979 28.3571C28.8847 28.3439 28.8743 28.3284 28.8673 28.3112C28.8602 28.2941 28.8565 28.2757 28.8566 28.2572V27.6485C28.8565 27.63 28.8602 27.6116 28.8673 27.5945C28.8743 27.5773 28.8847 27.5617 28.8979 27.5486C28.911 27.5355 28.9266 27.5251 28.9437 27.518C28.9608 27.5109 28.9792 27.5073 28.9978 27.5073H32.2419C32.2793 27.5073 32.3152 27.5222 32.3417 27.5487C32.3682 27.5752 32.3831 27.6111 32.3831 27.6485V28.2572C32.3831 28.2946 32.3682 28.3305 32.3417 28.357C32.3152 28.3835 32.2793 28.3984 32.2419 28.3984H31.1061V32.5635C31.1048 32.6005 31.0895 32.6357 31.0633 32.6618C31.0371 32.688 31.0019 32.7032 30.9649 32.7044H30.2734C30.2364 32.7032 30.2013 32.6879 30.1752 32.6617C30.1491 32.6356 30.1339 32.6004 30.1327 32.5635L30.1336 28.3984Z" fill="white"/>
<path d="M36.4732 30.2026L34.7804 27.7229C34.7663 27.7018 34.7582 27.6773 34.7571 27.6519C34.756 27.6266 34.7619 27.6014 34.7741 27.5791C34.7863 27.5569 34.8044 27.5384 34.8264 27.5258C34.8484 27.5131 34.8734 27.5068 34.8988 27.5074H35.656C35.6798 27.5081 35.7031 27.5146 35.7239 27.5262C35.7446 27.5379 35.7623 27.5544 35.7753 27.5743L36.963 29.2816L38.1507 27.5743C38.1637 27.5544 38.1813 27.538 38.202 27.5264C38.2227 27.5147 38.2458 27.5082 38.2696 27.5074H39.0341C39.0596 27.5066 39.0848 27.5128 39.1069 27.5254C39.129 27.538 39.1473 27.5564 39.1596 27.5787C39.1719 27.601 39.1779 27.6262 39.1768 27.6517C39.1757 27.6771 39.1676 27.7017 39.1534 27.7229L37.4383 30.195V32.5635C37.437 32.6006 37.4217 32.6357 37.3955 32.6619C37.3693 32.6881 37.3341 32.7033 37.2971 32.7045H36.6142C36.5956 32.7045 36.5773 32.7009 36.5602 32.6938C36.5431 32.6868 36.5275 32.6764 36.5144 32.6633C36.5013 32.6502 36.4909 32.6346 36.4839 32.6175C36.4768 32.6004 36.4732 32.5821 36.4732 32.5635V30.2026Z" fill="white"/>
<path d="M63.8059 0.740614C63.6766 0.513694 63.488 0.326204 63.2603 0.1982C63.03 0.0682706 62.7701 0 62.5057 0C62.2413 0 61.9814 0.0682706 61.7512 0.1982C61.523 0.325962 61.334 0.513484 61.2044 0.740614C61.076 0.966433 61.008 1.22156 61.0071 1.48132C61.0062 1.74109 61.0723 1.9967 61.1991 2.22343C61.3272 2.45133 61.5142 2.64064 61.7405 2.77161C61.9735 2.907 62.2382 2.97816 62.5076 2.97784C62.777 2.97751 63.0415 2.90571 63.2741 2.76976C63.4999 2.63792 63.6862 2.44779 63.8133 2.21927C63.9392 1.99294 64.0047 1.73798 64.0034 1.47898C64.0021 1.21998 63.9341 0.965681 63.8059 0.740614ZM63.7213 1.48491C63.7226 1.69964 63.6669 1.91088 63.5597 2.097C63.4542 2.28139 63.3013 2.43418 63.1168 2.53951C62.9312 2.64558 62.7212 2.70162 62.5074 2.70215C62.2936 2.70268 62.0833 2.64767 61.8972 2.54251C61.7122 2.43726 61.5588 2.28428 61.4531 2.09953C61.346 1.91323 61.2896 1.7021 61.2896 1.48721C61.2896 1.27232 61.346 1.06119 61.4531 0.874891C61.5588 0.690492 61.7126 0.538264 61.8981 0.434454C62.0846 0.329911 62.2948 0.275162 62.5086 0.275485C62.7224 0.275809 62.9325 0.331193 63.1186 0.4363C63.3031 0.540267 63.4562 0.692112 63.5616 0.875814C63.668 1.06105 63.7231 1.27129 63.7213 1.48491Z" fill="white"/>
<path d="M63.0676 1.43424C63.1183 1.35467 63.1435 1.26157 63.1401 1.1673C63.1435 1.10084 63.1311 1.03451 63.1038 0.973806C63.0765 0.913103 63.0352 0.859771 62.9832 0.818229C62.8527 0.728168 62.6957 0.684686 62.5374 0.694796H61.9318V2.25859H62.2675V1.68618H62.5354L62.8411 2.25859H63.2017V2.24359L62.8489 1.60451C62.9368 1.57015 63.0128 1.51099 63.0676 1.43424ZM62.7352 1.36341C62.6797 1.40755 62.6098 1.42951 62.5391 1.42501H62.268V0.955736H62.5379C62.6107 0.949882 62.6828 0.972645 62.7391 1.01918C62.7615 1.04205 62.7789 1.06932 62.7901 1.09927C62.8014 1.12922 62.8063 1.16119 62.8046 1.19314C62.8062 1.22488 62.8008 1.25659 62.7888 1.28601C62.7768 1.31544 62.7585 1.34186 62.7352 1.36341Z" fill="white"/>
</g>
<defs>
<clipPath id="clip0_7033_435812">
<rect width="64" height="33.2231" fill="white" transform="translate(0.00341797)"/>
</clipPath>
</defs>
</svg>
